# xmcd
#
# Track frame offsets:
#	150
#	12662
#	24586
#	37915
#	50788
#	61386
#	70640
#	83907
#	97371
#	108052
#	121299
#	131964
#	142834
#	156036
#	167830
#	182039
#	191345
#	203596
#	216283
#	228474
#	241376
#	253941
#	265203
#	275013
#	287691
#
# Disc length: 3991 seconds
#
# Revision: 0
# Processed by: cddbd v1.5.2PL0 Copyright (c) Steve Scherf et al.
# Submitted via: EZCDAudioConverter 1.0.6.1
#
DISCID=740f9519
DTITLE=Various Artist - Louisiana Swamp Blues CD C
DYEAR=2014
DGENRE=blues
TTITLE0=Left Hand Charlie - Whole lotta drinkin' on the block
TTITLE1=Big Chenier - Please try to realize
TTITLE2=Guitar Gable w. King Karl - Irene
TTITLE3=Shelton Dunaway - Keep livin'
TTITLE4=Boozoo Chavis - Boozoo stomp
TTITLE5=Lonesome Sundown - Learn to treat me better
TTITLE6=Tal Miller - Mean old Kokamoo
TTITLE7=Charles Sheffield - You move me
TTITLE8=Leroy Washington - Wild cherry
TTITLE9=Boogie Ramblers - I'm goin'
TTITLE10=Jimmy Dotson - Oh baby
TTITLE11=Clarence Garlow - Bon ton roule
TTITLE12=Boogie Jake - Bad luck and trouble
TTITLE13=Elton Anderson - If I don't see you
TTITLE14=Hop Wilson - Merry Christmas darling
TTITLE15=Guitar Jr. - I got it made
TTITLE16=Ivory Lee Jackson - Got the news this morning
TTITLE17=King Karl w. Guitar Gable - This should go on forever
TTITLE18=King Charles - But you thrill me
TTITLE19=Lonesome Sundown - Leave my money alone
TTITLE20=Blue Charlie - I'm gonna kill that hen
TTITLE21=Charles Sheffield - Nights of misery
TTITLE22=Hop Wilson - That wouldn't satisfy
TTITLE23=Boozoo Chavis - Forty one days
TTITLE24=Jimmy Anderson - Nothin' in this world
EXTD=
EXTT0=
EXTT1=
EXTT2=
EXTT3=
EXTT4=
EXTT5=
EXTT6=
EXTT7=
EXTT8=
EXTT9=
EXTT10=
EXTT11=
EXTT12=
EXTT13=
EXTT14=
EXTT15=
EXTT16=
EXTT17=
EXTT18=
EXTT19=
EXTT20=
EXTT21=
EXTT22=
EXTT23=
EXTT24=
PLAYORDER=
